<?xml version="1.0" standalone="no"?>
<!DOCTYPE svg PUBLIC "-//W3C//DTD SVG 20010904//EN"
 "http://www.w3.org/TR/2001/REC-SVG-20010904/DTD/svg10.dtd">
<svg version="1.0" xmlns="http://www.w3.org/2000/svg"
 width="500.000000pt" height="353.000000pt" viewBox="0 0 500.000000 353.000000"
 preserveAspectRatio="xMidYMid meet">

<g transform="translate(0.000000,353.000000) scale(0.100000,-0.100000)"
fill="#000000" stroke="none">
<path d="M1695 2529 c-66 -39 -125 -76 -132 -82 -16 -16 -18 -78 -15 -579 l2
-438 38 -20 c20 -11 44 -25 52 -30 61 -39 170 -100 179 -100 8 0 11 44 11 143
0 78 5 149 10 157 11 17 48 0 195 -88 l80 -48 3 -166 c2 -148 5 -167 21 -182
26 -24 261 -156 276 -156 7 0 74 35 149 78 l136 77 0 161 c0 112 4 165 13 177
14 20 246 157 264 157 10 0 13 -37 13 -154 0 -85 4 -157 8 -160 10 -6 263 140
280 162 9 12 12 127 12 497 0 404 -2 484 -15 501 -16 24 -257 164 -281 164
-15 0 -248 -131 -269 -151 -11 -11 14 -33 73 -65 78 -41 168 -97 180 -112 8
-11 12 -55 12 -138 0 -142 18 -117 -163 -223 -59 -35 -111 -60 -115 -57 -4 4
-9 62 -12 129 l-5 122 -50 33 c-79 52 -210 122 -229 122 -20 0 -152 -70 -231
-122 l-50 -33 -5 -122 c-3 -67 -8 -124 -12 -128 -8 -8 -19 -2 -170 87 l-118
69 0 120 c0 120 0 121 29 147 15 15 79 56 140 90 62 35 110 69 109 74 -5 14
-258 158 -277 157 -9 0 -70 -32 -136 -70z"/>
</g>
</svg>
